<svg width="34" height="34" viewBox="0 0 34 34" fill="none" xmlns="http://www.w3.org/2000/svg">
<path d="M26.0857 0H7.11429C3.18517 0 0 3.18517 0 7.11429V26.0857C0 30.0148 3.18517 33.2 7.11429 33.2H26.0857C30.0148 33.2 33.2 30.0148 33.2 26.0857V7.11429C33.2 3.18517 30.0148 0 26.0857 0Z" fill="url(#paint0_radial_67_78)"/>
<path d="M26.0857 0H7.11429C3.18517 0 0 3.18517 0 7.11429V26.0857C0 30.0148 3.18517 33.2 7.11429 33.2H26.0857C30.0148 33.2 33.2 30.0148 33.2 26.0857V7.11429C33.2 3.18517 30.0148 0 26.0857 0Z" fill="url(#paint1_radial_67_78)"/>
<path d="M26.0857 0H7.11429C3.18517 0 0 3.18517 0 7.11429V26.0857C0 30.0148 3.18517 33.2 7.11429 33.2H26.0857C30.0148 33.2 33.2 30.0148 33.2 26.0857V7.11429C33.2 3.18517 30.0148 0 26.0857 0Z" fill="url(#paint2_radial_67_78)"/>
<path d="M24.9 10.0789C24.9 11.0611 24.1037 11.8574 23.1214 11.8574C22.1392 11.8574 21.3428 11.0611 21.3428 10.0789C21.3428 9.09658 22.1392 8.30029 23.1214 8.30029C24.1037 8.30029 24.9 9.09658 24.9 10.0789Z" fill="white"/>
<path fill-rule="evenodd" clip-rule="evenodd" d="M16.6001 22.5285C19.8743 22.5285 22.5287 19.8742 22.5287 16.6C22.5287 13.3257 19.8743 10.6714 16.6001 10.6714C13.3259 10.6714 10.6715 13.3257 10.6715 16.6C10.6715 19.8742 13.3259 22.5285 16.6001 22.5285ZM16.6001 20.1571C18.5647 20.1571 20.1573 18.5646 20.1573 16.6C20.1573 14.6353 18.5647 13.0428 16.6001 13.0428C14.6355 13.0428 13.043 14.6353 13.043 16.6C13.043 18.5646 14.6355 20.1571 16.6001 20.1571Z" fill="white"/>
<path fill-rule="evenodd" clip-rule="evenodd" d="M4.74286 16.126C4.74286 12.1417 4.74286 10.1494 5.51827 8.62764C6.20034 7.28899 7.28868 6.20064 8.62733 5.51857C10.1491 4.74316 12.1414 4.74316 16.1257 4.74316H17.0743C21.0586 4.74316 23.0509 4.74316 24.5726 5.51857C25.9113 6.20064 26.9997 7.28899 27.6817 8.62764C28.4571 10.1494 28.4571 12.1417 28.4571 16.126V17.0746C28.4571 21.0589 28.4571 23.0512 27.6817 24.5729C26.9997 25.9116 25.9113 27 24.5726 27.682C23.0509 28.4575 21.0586 28.4575 17.0743 28.4575H16.1257C12.1414 28.4575 10.1491 28.4575 8.62733 27.682C7.28868 27 6.20034 25.9116 5.51827 24.5729C4.74286 23.0512 4.74286 21.0589 4.74286 17.0746V16.126ZM16.1257 7.11459H17.0743C19.1057 7.11459 20.4864 7.11644 21.5538 7.20364C22.5936 7.28858 23.1252 7.44255 23.4961 7.63153C24.3885 8.08625 25.114 8.81181 25.5687 9.70419C25.7577 10.0751 25.9118 10.6068 25.9967 11.6465C26.0838 12.7139 26.0857 14.0947 26.0857 16.126V17.0746C26.0857 19.106 26.0838 20.4867 25.9967 21.5541C25.9118 22.5939 25.7577 23.1255 25.5687 23.4964C25.114 24.3888 24.3885 25.1143 23.4961 25.569C23.1252 25.7581 22.5936 25.9121 21.5538 25.997C20.4864 26.0841 19.1057 26.086 17.0743 26.086H16.1257C14.0944 26.086 12.7136 26.0841 11.6462 25.997C10.6065 25.9121 10.0748 25.7581 9.70389 25.569C8.81151 25.1143 8.08595 24.3888 7.63122 23.4964C7.44224 23.1255 7.28828 22.5939 7.20333 21.5541C7.11614 20.4867 7.11429 19.106 7.11429 17.0746V16.126C7.11429 14.0947 7.11614 12.7139 7.20333 11.6465C7.28828 10.6068 7.44224 10.0751 7.63122 9.70419C8.08595 8.81181 8.81151 8.08625 9.70389 7.63153C10.0748 7.44255 10.6065 7.28858 11.6462 7.20364C12.7136 7.11644 14.0944 7.11459 16.1257 7.11459Z" fill="white"/>
<defs>
<radialGradient id="paint0_radial_67_78" cx="0" cy="0" r="1" gradientUnits="userSpaceOnUse" gradientTransform="translate(11.8571 24.9) rotate(-55.3758) scale(30.259)">
<stop stop-color="#B13589"/>
<stop offset="0.79309" stop-color="#C62F94"/>
<stop offset="1" stop-color="#8A3AC8"/>
</radialGradient>
<radialGradient id="paint1_radial_67_78" cx="0" cy="0" r="1" gradientUnits="userSpaceOnUse" gradientTransform="translate(10.6714 34.3857) rotate(-65.1363) scale(26.7903)">
<stop stop-color="#E0E8B7"/>
<stop offset="0.444662" stop-color="#FB8A2E"/>
<stop offset="0.71474" stop-color="#E2425C"/>
<stop offset="1" stop-color="#E2425C" stop-opacity="0"/>
</radialGradient>
<radialGradient id="paint2_radial_67_78" cx="0" cy="0" r="1" gradientUnits="userSpaceOnUse" gradientTransform="translate(-1.77857 1.18571) rotate(-8.1301) scale(46.1135 9.8632)">
<stop offset="0.156701" stop-color="#406ADC"/>
<stop offset="0.467799" stop-color="#6A45BE"/>
<stop offset="1" stop-color="#6A45BE" stop-opacity="0"/>
</radialGradient>
</defs>
</svg>
