<svg width="34" height="34" viewBox="0 0 34 34" fill="none" xmlns="http://www.w3.org/2000/svg">
<path d="M16.6 33.2C25.7679 33.2 33.2 25.7679 33.2 16.6C33.2 7.43207 25.7679 0 16.6 0C7.43207 0 0 7.43207 0 16.6C0 25.7679 7.43207 33.2 16.6 33.2Z" fill="url(#paint0_linear_67_79)"/>
<path d="M24.8841 9.73358C25.0319 8.77851 24.1238 8.02467 23.2746 8.39752L6.36116 15.8234C5.75219 16.0908 5.79673 17.0133 6.42833 17.2144L9.91626 18.3252C10.582 18.5372 11.3028 18.4275 11.8842 18.0259L19.7481 12.5929C19.9852 12.4291 20.2437 12.7663 20.0411 12.9751L14.3805 18.8112C13.8314 19.3774 13.9403 20.3367 14.6009 20.7509L20.9385 24.7252C21.6494 25.1709 22.5638 24.7231 22.6967 23.8641L24.8841 9.73358Z" fill="white"/>
<defs>
<linearGradient id="paint0_linear_67_79" x1="16.6" y1="0" x2="16.6" y2="33.2" gradientUnits="userSpaceOnUse">
<stop stop-color="#37BBFE"/>
<stop offset="1" stop-color="#007DBB"/>
</linearGradient>
</defs>
</svg>
