<svg width="34" height="34" viewBox="0 0 34 34" fill="none" xmlns="http://www.w3.org/2000/svg">
<path fill-rule="evenodd" clip-rule="evenodd" d="M33.1899 21.7032V11.5379C33.1899 2.25305 30.9977 0.044014 21.71 0.044014C-1.00238 -0.101718 -0.107372 -1.02538 0.0449992 21.686C0.0449992 30.9709 2.23726 33.18 11.5249 33.18H19.234C29.1018 33.3502 33.4381 32.6718 33.1899 21.7032ZM26.8029 23.6882H24.386C23.471 23.6882 23.195 22.9459 21.5549 21.3065C20.122 19.9257 19.5178 19.7531 19.1554 19.7531C18.6546 19.7531 18.5165 19.8911 18.5165 20.5813V22.7558C18.5165 23.3425 18.3268 23.6878 16.7901 23.6878C14.2351 23.6878 11.4215 22.1344 9.41863 19.2698C6.41489 15.076 5.60341 11.9003 5.60341 11.2619C5.60341 10.8994 5.74145 10.5713 6.43201 10.5713H8.84898C9.47035 10.5713 9.69472 10.8474 9.93655 11.4859C10.9273 14.7339 14.3211 20.1386 14.3731 17.0258V13.4705C14.2697 11.8483 13.4065 11.7102 13.4065 11.1235C13.4065 10.8645 13.6483 10.5713 14.0279 10.5713H17.8256C18.3435 10.5713 18.5162 10.8302 18.5162 11.4513V16.2492C18.5819 17.3997 19.2976 16.9471 20.0182 16.1975C21.7618 14.2646 22.9874 11.2615 22.9874 11.2615C23.1429 10.8991 23.419 10.5713 24.0403 10.5713H26.4573C27.1825 10.5713 27.3376 10.9337 27.1825 11.4516C26.8889 12.8666 23.9369 17.0086 23.9369 17.0261C23.6779 17.4231 23.5745 17.6304 23.9369 18.0962C24.6327 18.9633 29.7029 23.5421 26.8029 23.6882Z" fill="#345E90"/>
</svg>
